<svg id="Layer_1" data-name="Layer 1" xmlns="http://www.w3.org/2000/svg" viewBox="0 0 200 200"><defs><style>.cls-1{fill:#fff;}</style></defs><title>book</title><path class="cls-1" d="M103.37,158.1l-4.78-1.71c-30-11.94-56.64-13.31-79.16-3.41H11.24V19.91h6.14c26.27-9.21,57.32-9.21,83.6.34l2.39.68ZM51.84,139.34c14,0,28.66,3.07,44.7,8.53V25.71a122.74,122.74,0,0,0-77.46.68l-.34.34h-.68V145.82A86.34,86.34,0,0,1,51.84,139.34Z"/><path class="cls-1" d="M79.48,50.62H48.77a3.41,3.41,0,0,1,0-6.82H79.48a3.41,3.41,0,0,1,0,6.82Z"/><path class="cls-1" d="M79.48,67.68H35.12a3.41,3.41,0,1,1,0-6.82H79.48a3.41,3.41,0,0,1,0,6.82Z"/><path class="cls-1" d="M65.83,84.74H35.12a3.41,3.41,0,1,1,0-6.82H65.83a3.41,3.41,0,1,1,0,6.82Z"/><path class="cls-1" d="M79.48,101.8H48.77a3.41,3.41,0,0,1,0-6.82H79.48a3.41,3.41,0,0,1,0,6.82Z"/><path class="cls-1" d="M79.48,118.86H35.12a3.41,3.41,0,1,1,0-6.82H79.48a3.41,3.41,0,1,1,0,6.82Z"/><path class="cls-1" d="M127.25,67.68h-6.82a3.41,3.41,0,0,1,0-6.82h6.82a3.41,3.41,0,1,1,0,6.82Z"/><path class="cls-1" d="M127.25,50.62h-6.82a3.41,3.41,0,0,1,0-6.82h6.82a3.41,3.41,0,1,1,0,6.82Z"/><path class="cls-1" d="M168.2,50.62H154.55a3.41,3.41,0,1,1,0-6.82H168.2a3.41,3.41,0,0,1,0,6.82Z"/><path class="cls-1" d="M168.2,118.86H154.55a3.41,3.41,0,1,1,0-6.82H168.2a3.41,3.41,0,1,1,0,6.82Z"/><path class="cls-1" d="M127.25,101.8h-6.82a3.41,3.41,0,0,1,0-6.82h6.82a3.41,3.41,0,1,1,0,6.82Z"/><path class="cls-1" d="M127.25,84.74h-6.82a3.41,3.41,0,0,1,0-6.82h6.82a3.41,3.41,0,1,1,0,6.82Z"/><path class="cls-1" d="M168.2,84.74H154.55a3.41,3.41,0,1,1,0-6.82H168.2a3.41,3.41,0,0,1,0,6.82Z"/><path class="cls-1" d="M130.66,159.81H1V19.91H18.06V145.82c23.54-9.9,51.18-8.53,81.89,3.41a143,143,0,0,1,26.62-7.51l4.09-.68ZM110.19,153h13.65v-3.75C119.4,150.26,115,151.62,110.19,153ZM7.82,153H90.06c-26.62-8.87-50.5-9.21-70.63-.34l-.68.34H11.24V26.73H7.82Z"/><path class="cls-1" d="M198.91,159.81H151.14V139.34l3.75.34a84.3,84.3,0,0,1,27,6.14V19.91h17.06ZM188.67,153h3.41V26.73h-3.41ZM158,153h23.2l-.68-.34A78.2,78.2,0,0,0,158,146.5Z"/><path class="cls-1" d="M130.66,170H1V153H130.66ZM7.82,163.22h116v-3.41H7.82Z"/><path class="cls-1" d="M198.91,170H151.14V153h47.77ZM158,163.22h34.12v-3.41H158Z"/><path class="cls-1" d="M158,193.93,140.9,181l-17.06,13V14.11l3.07-.34a127.85,127.85,0,0,1,28,0l3.07.34ZM140.9,172.78l10.24,7.51v-160a102.62,102.62,0,0,0-20.47,0v160Z"/><path class="cls-1" d="M96.54,158.1V20.93l2.39-.68a125.7,125.7,0,0,1,24.91-5.8h1.36a118.25,118.25,0,0,1,31.05,0l1.71-.34a128.22,128.22,0,0,1,24.57,5.8h6.14V153h-7.51l-.68-.34a70.79,70.79,0,0,0-25.93-6.48h-3.41V20.25a102.62,102.62,0,0,0-20.47,0V147.87l-2.73.68a177.91,177.91,0,0,0-26.62,7.85Zm6.82-132.39V147.87a188.88,188.88,0,0,1,20.47-5.8V21.27A109.9,109.9,0,0,0,103.37,25.71Zm54.59,114a68.49,68.49,0,0,1,23.89,6.14V26.73h-.68l-.68-.34a131.17,131.17,0,0,0-22.86-5.46V139.68Z"/></svg>
