<?xml version="1.0" encoding="iso-8859-1"?>
<!-- Generator: Adobe Illustrator 21.0.2, SVG Export Plug-In . SVG Version: 6.00 Build 0)  -->
<svg version="1.1" id="&#x421;&#x43B;&#x43E;&#x439;_1"
	 xmlns="http://www.w3.org/2000/svg" xmlns:xlink="http://www.w3.org/1999/xlink" x="0px" y="0px" viewBox="0 0 566.929 439.37"
	 style="enable-background:new 0 0 566.929 439.37;" xml:space="preserve">
<path style="fill:#FFD43E;" d="M9.49,241.268c-4.315-4.314-6.417-10.866-6.417-15.18c0-4.313,2.102-10.73,6.417-15.044
	l30.224-30.225c8.655-8.655,21.596-8.655,30.225,0l2.129,2.211l118.687,127.207c4.313,4.341,10.73,4.341,15.072,0l288.98-299.845
	h2.211c8.654-8.52,21.596-8.52,30.224,0l30.144,30.225c8.628,8.655,8.628,21.597,0,30.225l-345.034,358.11
	c-4.314,4.315-8.655,6.418-15.179,6.418c-6.417,0-10.731-2.103-15.046-6.418L13.803,247.686L9.49,241.268z M9.49,241.268"/>
</svg>
