<svg xmlns="http://www.w3.org/2000/svg" viewBox="0 0 196.91 162.9"><defs><style>.cls-1{fill:#103e66;}</style></defs><title>cloud-01</title><g id="Layer_2" data-name="Layer 2"><path class="cls-1" d="M172.45,80.47l27.46,27.08-36,7.87a56.8,56.8,0,0,0,8.7-30.11C172.66,83.68,172.58,82.07,172.45,80.47Z" transform="translate(-3 -22)"/><path class="cls-1" d="M151.41,130.09a55.64,55.64,0,0,0,7.72-28.18c0-34.63-32.48-62.7-72.53-62.7-20.43,0-38.9,7.3-52.08,19.06C46.14,36.83,71.15,22,100.12,22c38.19,0,69.49,25.77,72.33,58.47.14,1.6.21,3.21.21,4.84a56.8,56.8,0,0,1-8.7,30.11A65.12,65.12,0,0,1,151.41,130.09Z" transform="translate(-3 -22)"/><path class="cls-1" d="M148.07,113.59a56.1,56.1,0,0,1-4.76,22.6,79.37,79.37,0,0,1-43.19,12.44c-25.17,0-47.34-11.19-60.35-28.18a10.45,10.45,0,0,0-7.88-17.31,9.86,9.86,0,0,0-1.35.09,56,56,0,0,1,1.81-40.51A79.37,79.37,0,0,1,75.53,50.28C115.59,50.28,148.07,78.63,148.07,113.59Zm-18.44,0A10.45,10.45,0,1,0,119.18,124,10.46,10.46,0,0,0,129.63,113.59Zm-43.64,0A10.45,10.45,0,1,0,75.53,124,10.46,10.46,0,0,0,86,113.59Z" transform="translate(-3 -22)"/><path class="cls-1" d="M143.31,136.19a59.93,59.93,0,0,1-5.89,10.45c-13.09,11.11-31,18-50.82,18-40.05,0-72.53-28.07-72.53-62.7A56.59,56.59,0,0,1,26.2,67.18a72,72,0,0,1,6.15-4.46,56,56,0,0,0-1.81,40.51,10.45,10.45,0,1,0,9.23,17.22c13,17,35.19,28.18,60.35,28.18A79.37,79.37,0,0,0,143.31,136.19Z" transform="translate(-3 -22)"/><path class="cls-1" d="M42.69,170.06a70.24,70.24,0,0,1-28.55-22.74A57.27,57.27,0,0,1,3,113.59c0-18.33,8.93-34.85,23.2-46.41a56.59,56.59,0,0,0-12.13,34.73c0,34.63,32.48,62.7,72.53,62.7,19.79,0,37.73-6.86,50.82-18-12.76,18.16-35.7,30.27-61.89,30.27A80.93,80.93,0,0,1,42.69,170.06Z" transform="translate(-3 -22)"/><path class="cls-1" d="M42.69,170.06,7.3,184.9l6.84-37.58A70.24,70.24,0,0,0,42.69,170.06Z" transform="translate(-3 -22)"/></g></svg>