<?xml version="1.0" encoding="iso-8859-1"?>
<!-- Generator: Adobe Illustrator 21.0.2, SVG Export Plug-In . SVG Version: 6.00 Build 0)  -->
<svg version="1.1" id="&#x421;&#x43B;&#x43E;&#x439;_1"
	 xmlns="http://www.w3.org/2000/svg" xmlns:xlink="http://www.w3.org/1999/xlink" x="0px" y="0px" viewBox="0 0 566.93 566.93"
	 style="enable-background:new 0 0 566.93 566.93;" xml:space="preserve">
<g>
	<path style="fill:#FFFFFF;" d="M376.362,143.397h43.212l-29.64,167.467c-3.312,19.298-3.377,33.326-0.31,41.989
		c3.116,8.597,10,12.936,20.701,12.936c10.718,0,21.223-2.43,31.484-7.39c10.326-4.975,19.559-12.561,27.845-22.887
		c8.222-10.261,14.91-23.197,20.065-38.857c5.106-15.677,7.716-34.159,7.716-55.643c0-30.831-5.155-57.209-15.416-79.068
		c-10.325-21.794-24.403-39.836-42.315-54.044c-17.977-14.208-39.053-24.6-63.342-31.223c-24.339-6.558-50.472-9.869-78.497-9.869
		c-32.12,0-61.94,5.792-89.541,17.324c-27.585,11.533-51.548,27.406-72.005,47.535c-20.325,20.212-36.312,44.159-47.845,72.005
		c-11.533,27.781-17.275,57.927-17.275,90.487c0,32.12,4.844,60.928,14.469,86.474c9.69,25.546,23.833,47.275,42.38,65.186
		c18.466,17.911,41.483,31.663,68.808,41.353c27.405,9.69,58.823,14.535,94.255,14.535c11.908,0,25.48-1.469,40.782-4.34
		c15.22-2.871,28.987-7.194,41.352-12.936l19.184,59.264c-16.9,8.287-34.094,14.013-51.614,17.341
		c-17.536,3.246-37.601,4.894-60.227,4.894c-39.95,0-76.915-5.726-110.877-17.259c-33.964-11.534-63.392-28.613-88.317-51.304
		c-24.91-22.609-44.404-50.716-58.433-84.304C9.014,379.492,2,340.684,2,296.655c0-44.925,8.026-85.463,24.094-121.71
		c16.052-36.263,37.715-67.111,64.859-92.656c27.21-25.546,58.694-45.252,94.5-59.004C221.26,9.453,259.187,2.569,299.137,2.569
		c37.846,0,73.081,5.481,105.641,16.378c32.512,10.897,60.732,26.573,84.631,46.964c23.833,20.391,42.625,45.301,56.197,74.745
		s20.391,62.902,20.391,100.356c0,26.394-4.585,51.043-13.882,74.174c-9.249,23.066-22.055,43.017-38.303,59.9
		c-16.312,16.884-35.236,30.276-56.833,40.146c-21.615,9.886-44.795,14.845-69.46,14.845c-10.326,0-19.886-1.142-28.743-3.442
		c-8.857-2.218-16.312-6.052-22.234-11.403c-5.987-5.351-10.391-12.365-13.327-21.027c-2.855-8.596-3.687-19.314-2.414-32.12h-2.48
		c-6.182,8.679-12.87,17.145-20.081,25.366c-7.194,8.222-15.171,15.546-23.768,21.924c-8.662,6.362-18.156,11.403-28.416,15.09
		c-10.326,3.703-21.663,5.611-34.028,5.611c-9.869,0-19.315-2.17-28.352-6.493c-9.119-4.339-16.949-10.391-23.523-18.221
		c-6.558-7.846-11.843-17.275-15.742-28.433c-3.947-11.142-5.856-23.507-5.856-37.079c0-25.497,4.078-50.341,12.365-74.435
		c8.222-24.077,19.429-45.366,33.637-63.897c14.208-18.547,30.652-33.457,49.461-44.811c18.727-11.337,38.612-17.014,59.574-17.014
		c14.405,0,26.573,2.17,36.443,6.509c9.886,4.34,18.939,10,27.144,17.014L376.362,143.397z M337.423,218.207
		c-5.351-4.584-10.881-8.026-16.689-10.522c-5.725-2.48-12.936-3.686-21.598-3.686c-12.365,0-23.768,3.507-34.29,10.505
		c-10.506,6.949-19.559,16.003-27.21,27.144c-7.585,11.093-13.442,23.588-17.585,37.356c-4.143,13.817-6.182,27.324-6.182,40.455
		c0,13.638,2.806,24.73,8.352,33.392c5.546,8.662,15.105,13.001,28.743,13.001c5.726,0,11.908-1.794,18.482-5.285
		c6.623-3.507,12.985-8.107,19.168-13.898c6.182-5.742,12.169-12.365,17.911-19.755c5.791-7.389,10.897-15.236,15.481-23.441
		L337.423,218.207z M337.423,218.207"/>
</g>
</svg>
