<?xml version="1.0" encoding="iso-8859-1"?>
<!-- Generator: Adobe Illustrator 21.0.2, SVG Export Plug-In . SVG Version: 6.00 Build 0)  -->
<svg version="1.1" id="&#x421;&#x43B;&#x43E;&#x439;_1"
	 xmlns="http://www.w3.org/2000/svg" xmlns:xlink="http://www.w3.org/1999/xlink" x="0px" y="0px" viewBox="0 0 1729.13 2267.72"
	 style="enable-background:new 0 0 1729.13 2267.72;" xml:space="preserve">
<g>
	<g id="XMLID_2_">
		<g>
			<path style="fill:#FFFFFF;" d="M499.952,705.885c0-205.9,167.51-372.97,372.97-372.97c205.9,0,372.95,167.51,372.95,372.97
				v230.72h-745.92V705.885z"/>
			<path style="fill:#164F80;" d="M209.632,705.885c0-365.74,297.55-663.31,663.29-663.75c365.72,0,663.29,297.55,663.29,663.29
				v230.72h4.52c96.61,0,175.19,78.57,175.19,175.2v965.36c0,96.64-78.58,175.19-175.19,175.19H194.272
				c-96.61,0-175.19-78.55-175.19-175.19v-964.91c0-96.64,78.58-175.19,175.19-175.19h15.36V705.885z M499.952,936.605h745.92
				v-230.72c0-205.46-167.05-372.97-372.95-372.97c-205.46,0-372.97,167.07-372.97,372.97V936.605z"/>
		</g>
	</g>
</g>
</svg>
