<?xml version="1.0" encoding="iso-8859-1"?>
<!-- Generator: Adobe Illustrator 21.0.2, SVG Export Plug-In . SVG Version: 6.00 Build 0)  -->
<svg version="1.1" id="&#x421;&#x43B;&#x43E;&#x439;_1"
	 xmlns="http://www.w3.org/2000/svg" xmlns:xlink="http://www.w3.org/1999/xlink" x="0px" y="0px" viewBox="0 0 1729.13 2267.72"
	 style="enable-background:new 0 0 1729.13 2267.72;" xml:space="preserve">
<path style="fill:#FFD43E;" d="M1546.36,928.922h-4.579l-1046.855,0.365v-218.44c0-110.851,39.203-205.505,117.709-283.913
	c78.408-78.408,173.086-117.613,283.912-117.613c110.827,0,205.503,39.205,283.913,117.613
	c78.408,78.409,117.613,173.063,117.613,283.913c0,27.17,9.963,50.756,29.794,70.587c19.927,19.831,43.44,29.795,70.587,29.795
	h100.406c27.171,0,50.78-9.964,70.611-29.795c19.831-19.831,29.794-43.417,29.794-70.587c0-193.471-68.71-358.929-206.25-496.469
	S1090.018,8.105,896.547,8.105c-193.471,0-358.928,68.733-496.469,206.273c-137.54,137.54-206.249,302.998-206.249,496.469v218.544
	h-11.374C84.594,929.391,5,1008.963,5,1106.852v977.407c0,97.889,79.594,177.461,177.455,177.461H1546.36
	c97.861,0,177.455-79.572,177.455-177.461V1106.4C1723.815,1008.517,1644.221,928.922,1546.36,928.922z"/>
</svg>
