<?xml version="1.0" encoding="iso-8859-1"?>
<!-- Generator: Adobe Illustrator 21.0.2, SVG Export Plug-In . SVG Version: 6.00 Build 0)  -->
<svg version="1.1" id="Layer_1" xmlns="http://www.w3.org/2000/svg" xmlns:xlink="http://www.w3.org/1999/xlink" x="0px" y="0px"
	 viewBox="0 0 650 800" style="enable-background:new 0 0 650 800;" xml:space="preserve">
<g>
	<path style="fill:#164F80;" d="M634.646,218.657c-4.875-4.875-11.695-7.432-18.625-7.432h-205.88l-38.256-57.733
		c-4.765-7.345-12.963-11.695-21.686-11.695l-182.905-0.175c9.727-14.078,15.455-31.26,15.455-49.689
		c0-48.508-39.458-87.966-87.857-87.966c-48.508,0-87.878,39.458-87.878,87.966c0,36.113,21.685,67.287,53.295,80.774v588.348
		c0,19.215,15.608,34.758,34.736,34.758c19.128,0,34.758-15.543,34.758-34.758V488.391l206.47,0.175l38.256,57.733
		c4.874,7.258,12.897,11.521,21.619,11.521h0.088l219.959-0.087c14.428,0,26.21-11.608,26.21-25.948V236.91
		C642.406,230.09,639.521,223.598,634.646,218.657L634.646,218.657z M94.893,55.973c19.717,0,35.851,16.132,35.851,35.96
		c0,19.718-16.134,35.851-35.851,35.851c-19.828,0-35.96-16.133-35.96-35.851C58.933,72.106,75.066,55.973,94.893,55.973
		L94.893,55.973z M129.805,193.627l203.06,0.175v242.759l-203.06-0.175V193.627z M367.622,443.228V240.845l11.521,15.718v202.295
		L367.622,443.228z M589.898,505.727l-175.997,0.175V263.143l175.997-0.175V505.727z M589.898,505.727"/>
</g>
</svg>
