<svg xmlns="http://www.w3.org/2000/svg" viewBox="0 0 200 200"><defs><style>.cls-1{fill:#fff;}</style></defs><title>student</title><g id="Layer_2" data-name="Layer 2"><path class="cls-1" d="M164.5,4.5a2.94,2.94,0,0,1,3,3,2.94,2.94,0,0,1-3,3h-4v22s4,15,4,17,0,3-3,4a3.1,3.1,0,0,1-4-2l-1-4-1,4a3.16,3.16,0,0,1-6-2l4-17v-22h-19v27s11,11,11,32-18,35-18,35,7,1,15,11c8.5,10.62,9,24,9,24v53a2.94,2.94,0,0,1-3,3h-97s-4,0-4-3S51,189,51,189H96l-.5-39.5-23-39a40.83,40.83,0,0,0-14,13c-6,9-5,25-5,25v23s0,2-3,2a2.94,2.94,0,0,1-3-3v-22A49.76,49.76,0,0,1,52,122a35,35,0,0,1,18.5-17.5s-10-5-16-25c-6.91-23,10-42,10-42v-26h-30c-4,0-4-3-4-3,0-4,3-4,3-4Zm-20,185v-48s0-12-6-20a35.94,35.94,0,0,0-13-11l-23,39v40Zm-6-125c0-12-9-22-9-22h-34s12,12,22,16A125.38,125.38,0,0,0,138.5,64.5Zm-39,43c36,0,39-37,39-37s-16-2-25-7a169.22,169.22,0,0,1-17-11,65,65,0,0,1-17,11,113.16,113.16,0,0,1-20,7S63.5,107.5,99.5,107.5Zm28-72v-24h-56v24Zm-28,107,18-32s-7,4-18,4a46.47,46.47,0,0,1-19-4Zm-8-95-4-5h-18a24.18,24.18,0,0,0-7,10,102.3,102.3,0,0,0-3,11s12-3,21-8S91.5,47.5,91.5,47.5Z"/></g></svg>
