<?xml version="1.0" encoding="iso-8859-1"?>
<!-- Generator: Adobe Illustrator 21.0.2, SVG Export Plug-In . SVG Version: 6.00 Build 0)  -->
<svg version="1.1" id="&#x421;&#x43B;&#x43E;&#x439;_1"
	 xmlns="http://www.w3.org/2000/svg" xmlns:xlink="http://www.w3.org/1999/xlink" x="0px" y="0px" viewBox="0 0 566.929 566.93"
	 style="enable-background:new 0 0 566.929 566.93;" xml:space="preserve">
<path style="fill:#FFFFFF;" d="M283.454,7.774C131.988,7.774,8.852,131.015,8.852,282.397C8.852,433.864,131.988,557,283.454,557
	c9.374,0,16.918-7.545,16.918-16.897c0-9.374-7.544-16.919-16.918-16.919c-132.74,0-240.703-108.046-240.703-240.787
	c0-132.762,107.963-240.703,240.703-240.703c132.761,0,240.724,107.941,240.724,240.703c0,55.484-29.487,110.505-71.772,133.813
	c-15.342,8.365-32.008,12.568-49.746,12.715c10.676-6.305,19.881-14.858,26.775-25.682c1.303-2.06,3.111-3.783,4.014-6.074
	c5.506-13.219,5.99-28.33,9.289-42.285c4.098-17.906-78.329-52.878-85.475-30.537c-2.543,8.28-6.557,34.489-11.727,41.382
	c-4.687,6.158-16.015,3.195-23.16-2.879c-18.81-16.014-39.743-39.49-58.132-58.132c-0.484-0.483-1.051-1.05-1.555-1.555
	c-0.483-0.483-1.071-0.987-1.555-1.555v0.084c-18.557-18.389-42.117-39.322-58.131-58.216c-6.074-7.146-8.954-18.474-2.796-23.14
	c6.915-5.17,33.017-9.121,41.298-11.664c22.341-7.146-12.631-89.657-30.537-85.538c-13.954,3.279-29.066,3.762-42.285,9.269
	c-2.291,0.988-4.014,2.711-6.074,4.098c-47.035,29.801-53.108,102.225-7.124,156.238c17.486,20.596,35.707,40.562,54.496,60.087
	l-0.084,0.084c0.505,0.504,1.072,0.987,1.576,1.492c0.568,0.567,1.051,1.05,1.472,1.555l0.168-0.084
	c19.461,18.789,42.6,46.468,80.115,71.583c79.148,52.793,139.824,38.019,175.531,18.389c61.725-33.984,89.32-106.554,89.32-163.362
	C558.077,131.015,434.858,7.774,283.454,7.774L283.454,7.774z M283.454,7.774"/>
</svg>
